PathFileType	4	(X/Y/Z)	13_1_34_p1_0-389.trc
DataRate	CameraRate	NumFrames	NumMarkers	Units	OrigDataRate	OrigDataStartFrame	OrigNumFrames
60.0	60.0	4	27	m	60.0	0	390
Frame#	Time	RHip			RKnee			RAnkle			RBigToe			RSmallToe			RHeel			LHip			LKnee			LAnkle			LBigToe			LSmallToe			LHeel			Neck			Head			Nose			RShoulder			RElbow			RWrist			RThumb			RIndex			RPinky			LShoulder			LElbow			LWrist			LThumb			LIndex			LPinky			
		X1	Y1	Z1	X2	Y2	Z2	X3	Y3	Z3	X4	Y4	Z4	X5	Y5	Z5	X6	Y6	Z6	X7	Y7	Z7	X8	Y8	Z8	X9	Y9	Z9	X10	Y10	Z10	X11	Y11	Z11	X12	Y12	Z12	X13	Y13	Z13	X14	Y14	Z14	X15	Y15	Z15	X16	Y16	Z16	X17	Y17	Z17	X18	Y18	Z18	X19	Y19	Z19	X20	Y20	Z20	X21	Y21	Z21	X22	Y22	Z22	X23	Y23	Z23	X24	Y24	Z24	X25	Y25	Z25	X26	Y26	Z26	X27	Y27	Z27	
0	0.0	0.26184499119962684	0.8227253498126702	0.6008501464485925	0.2802893431333785	1.081416895599489	1.0238786763613	0.26599974765982426	1.2553180550640994	1.385517798915376	0.2598588006323894	1.0657097822460122	1.4574311723341489	0.3202724356563564	1.0861400461780344	1.444024096517007	0.23666976053206068	1.3462943402698577	1.4294991924552012	0.05655413063331654	0.853253388478849	0.609180143512859	0.07399105724300047	1.0745549746087077	1.0243501003329085	0.07577930850233318	1.230780440525529	1.3952894521159989	0.10112116133250598	1.0591034867801865	1.4663754813348293	0.03968411922813344	1.0890565682272033	1.4525938645254612	0.09509127330631716	1.3111768350804043	1.4179580625349626	0.16571724386794143	0.631028978010572	0.13727677767540208	0.16253231335380441	0.48535014096187884	-0.07736761379571262	0.13755728638720788	0.4599039828396711	0.0673778479635973	0.31039851468218105	0.6384931043815558	0.20727041880001074	0.3204870725807124	0.6916200881037384	0.4598470859321244	0.2107972550707667	0.6088318189602631	0.6909446302607446	0.1140273324064421	0.628202269404626	0.7713763097016362	0.13138098993590178	0.6550749501284518	0.7950848731973552	0.1801690846520844	0.6627932485301254	0.8060661945073876	0.02118176377592553	0.6698372320949852	0.19597960574692258	-0.008052479744599071	0.6889711898145741	0.4712191599726553	0.07913191654190839	0.6586203164167717	0.6869739085039672	0.1400705570261208	0.6400453972274615	0.7646709832519593	0.1515239371990287	0.6533330265241724	0.7826504288359516	0.13991467972781488	0.6443130118044937	0.7956524560432024
1	0.016666666666666666	0.2652615894761682	0.8370259413191389	0.599393939554452	0.2809819545991851	1.0796656103368338	1.0207356851711584	0.2669605923399682	1.2534843247648806	1.381170037138822	0.25983208790296464	1.0656158889361889	1.4576838994107446	0.32568913803809935	1.0887630096447496	1.443961277666652	0.24008868367606437	1.3636873028442118	1.4270892229721115	0.05720970658259351	0.8533734665737152	0.6088446262602363	0.07383400343599458	1.0745261843026896	1.0241833085833005	0.07581519895050584	1.230752329661074	1.3954610759353094	0.10386342398754815	1.0751391683139022	1.4701114044830004	0.04091184275956625	1.0925911163731437	1.4576141182892008	0.1001141106668192	1.3146349177468148	1.4178949748085794	0.16608268920967756	0.6308617133242733	0.13757841635072157	0.16252719531782864	0.4852899281684544	-0.07733127941853594	0.13754474513815337	0.4598989314514897	0.06738291757850624	0.3106088142067248	0.6393257480039933	0.21067601404067363	0.3205066877569973	0.6914775383529449	0.45973283348641175	0.21328823146500772	0.6182929327384394	0.6898754250128701	0.11649315145263796	0.6381325834768877	0.7703011182084979	0.1302918493363491	0.6497313539528022	0.7801826990240918	0.17942224053407385	0.6607365620340466	0.8009326144328918	0.014788430955779648	0.6548770149384262	0.19957482390218453	-0.013086583233270836	0.701516476645549	0.4698971820618686	0.08090463386750822	0.6730805139864391	0.6893796095219259	0.1498547978691724	0.6671227044125777	0.7628751449060149	0.1564756239165082	0.676483462208968	0.7779059406508609	0.1390886764746193	0.6720109293801231	0.7953852808940043
2	0.03333333333333333	0.26122900074753097	0.8356105875821294	0.59976094631463	0.2802253226860616	1.0813094304606983	1.024247596342558	0.2669806391403451	1.2535615002012415	1.3810255321923532	0.26005856033836366	1.0666565027413657	1.4574536316226088	0.32150774815403216	1.10812364465245	1.4478197086604596	0.2403129434454007	1.3642360016477402	1.4273078840686861	0.05704933800747534	0.8522866157465568	0.6056893327461381	0.07002368211672429	1.0735085036966148	1.0244675385096789	0.08000167129817244	1.2331603530712114	1.3955090507126107	0.10106553435149988	1.0592712797004449	1.4667226058736604	0.039650402365867914	1.0897137499427945	1.4528862908333444	0.10133866988261844	1.317934294503377	1.4176657923145943	0.16607805486227456	0.6308375491091396	0.1375997624329368	0.16247448808360299	0.48516180959863003	-0.07719166780000643	0.13748026980365777	0.45979547659839626	0.06739979158799217	0.3108969620345319	0.6407827737417884	0.2104578276243892	0.3204367021395179	0.6916571843162006	0.4598536105200598	0.21329229544401465	0.6183816196258832	0.6897739235400936	0.11620055210341936	0.63753418893945	0.7668428158804087	0.12534804980045172	0.6447957482752341	0.7762765281645383	0.1788538870714695	0.6602617007085797	0.7961774045748956	0.015039491832729703	0.6566728907260968	0.20253872023654598	-0.013075470517548544	0.7015672228684815	0.4698053552337401	0.07715109575234658	0.6702002339538703	0.6825606171343837	0.1460925687363488	0.6650982839666462	0.7594954043612318	0.15680646798587422	0.6761353412413346	0.7774680048644088	0.13884107829560513	0.6698018652805847	0.7867517820475878
3	0.05	0.26218244970659693	0.8391029511158309	0.607281214179214	0.2802270394117371	1.0813342408274662	1.0243338130348818	0.266951499557469	1.253548319323091	1.3811137168851375	0.2600640426190327	1.066168259662483	1.4574603151428749	0.32533208565941846	1.1228105622887137	1.4501830487945178	0.24018495173248763	1.363909934764079	1.4270909404512448	0.05684543133534263	0.8523410693565772	0.6060309409453929	0.06998941657167015	1.0732482328846735	1.0253641103108604	0.07565824203777946	1.2308768899336644	1.3955523147813562	0.10115655972363577	1.0588075093498175	1.4665290721978959	0.03965568992755114	1.0888800647465113	1.452575901575274	0.10089540514534666	1.3160404058177602	1.4173572229252913	0.166080011555835	0.630820506169687	0.13762653329894933	0.1625319873004747	0.4851768679385745	-0.07729179859690954	0.13742665033115836	0.45982054365412944	0.06737582616603686	0.31106305023616426	0.6415776537955343	0.21393202247538046	0.3129778786724344	0.7048436860848889	0.4625473515880444	0.2127206471170146	0.6159812271067027	0.6861714438597791	0.11943956595243205	0.6495334322329945	0.7693908729514825	0.13059556064553335	0.6681419340413193	0.7752808836199016	0.17825719807342189	0.6575008969176335	0.7912256175472222	0.014682400007825109	0.6545055539013194	0.19968659287664842	-0.01304493576351386	0.7017431817039546	0.4697117304886916	0.08099442717662854	0.6718618035354901	0.6821752914926739	0.15292480104501074	0.691400497940415	0.757925672013126	0.1595881934657573	0.6876695433916851	0.7768761528619749	0.14324858521069395	0.6701468648923604	0.7832611307946702
